HIERARCHY
ROOT Hips
{
  OFFSET -105.601 103.411 10.8171
  CHANNELS 6 Xposition Yposition Zposition Zrotation Xrotation Yrotation
  JOINT Spine
  {
    OFFSET 0 0 4.66705
    CHANNELS 6 Xposition Yposition Zposition Zrotation Xrotation Yrotation
    JOINT Spine1
    {
      OFFSET 9.33409 0 0
      CHANNELS 6 Xposition Yposition Zposition Zrotation Xrotation Yrotation
      JOINT Spine2
      {
        OFFSET 11.0269 0 0
        CHANNELS 6 Xposition Yposition Zposition Zrotation Xrotation Yrotation
        JOINT Neck
        {
          OFFSET 27.2125 0 -10.2659
          CHANNELS 6 Xposition Yposition Zposition Zrotation Xrotation Yrotation
          JOINT Head
          {
            OFFSET 10.9224 0 0
            CHANNELS 6 Xposition Yposition Zposition Zrotation Xrotation Yrotation
            End Site
            {
              OFFSET 0 0 0
            }
          }
        }
        JOINT RightShoulder
        {
          OFFSET 23.8429 -1.55531 -7.12573
          CHANNELS 6 Xposition Yposition Zposition Zrotation Xrotation Yrotation
          JOINT RightArm
          {
            OFFSET 14.1892 0 0
            CHANNELS 6 Xposition Yposition Zposition Zrotation Xrotation Yrotation
            JOINT RightForeArm
            {
              OFFSET 29.5651 0 0
              CHANNELS 6 Xposition Yposition Zposition Zrotation Xrotation Yrotation
              JOINT RightHand
              {
                OFFSET 25.3936 0 0
                CHANNELS 6 Xposition Yposition Zposition Zrotation Xrotation Yrotation
                JOINT RightFingerBase
                {
                  OFFSET 2.18163 0 0
                  CHANNELS 6 Xposition Yposition Zposition Zrotation Xrotation Yrotation
                  JOINT RightHandMiddle1
                  {
                    OFFSET 6.77462 0.0865053 -1.22157
                    CHANNELS 6 Xposition Yposition Zposition Zrotation Xrotation Yrotation
                    End Site
                    {
                      OFFSET 0 0 0
                    }
                  }
                }
              }
            }
          }
        }
        JOINT LeftShoulder
        {
          OFFSET 23.8431 1.55531 -7.12577
          CHANNELS 6 Xposition Yposition Zposition Zrotation Xrotation Yrotation
          JOINT LeftArm
          {
            OFFSET -14.1892 0.000694916 0
            CHANNELS 6 Xposition Yposition Zposition Zrotation Xrotation Yrotation
            JOINT LeftForeArm
            {
              OFFSET -29.5651 0 0
              CHANNELS 6 Xposition Yposition Zposition Zrotation Xrotation Yrotation
              JOINT LeftHand
              {
                OFFSET -25.3936 0 0
                CHANNELS 6 Xposition Yposition Zposition Zrotation Xrotation Yrotation
                JOINT LeftFingerBase
                {
                  OFFSET -2.18182 -0.000553688 0
                  CHANNELS 6 Xposition Yposition Zposition Zrotation Xrotation Yrotation
                  JOINT LeftHandMiddle1
                  {
                    OFFSET -6.77445 -0.0859989 1.22158
                    CHANNELS 6 Xposition Yposition Zposition Zrotation Xrotation Yrotation
                    End Site
                    {
                      OFFSET 0 0 0
                    }
                  }
                }
              }
            }
          }
        }
      }
    }
  }
  JOINT RightUpLeg
  {
    OFFSET -8.89671 -5.28428 -4.10676
    CHANNELS 6 Xposition Yposition Zposition Zrotation Xrotation Yrotation
    JOINT RightLeg
    {
      OFFSET 43.6759 0 0
      CHANNELS 6 Xposition Yposition Zposition Zrotation Xrotation Yrotation
      JOINT RightFoot
      {
        OFFSET 45.3154 0 0
        CHANNELS 6 Xposition Yposition Zposition Zrotation Xrotation Yrotation
        JOINT RightToeBase
        {
          OFFSET 14.6877 0 0
          CHANNELS 6 Xposition Yposition Zposition Zrotation Xrotation Yrotation
          End Site
          {
            OFFSET 0 0 0
          }
        }
      }
    }
  }
  JOINT LeftUpLeg
  {
    OFFSET 8.89671 -5.28429 -4.10672
    CHANNELS 6 Xposition Yposition Zposition Zrotation Xrotation Yrotation
    JOINT LeftLeg
    {
      OFFSET -43.676 0 0
      CHANNELS 6 Xposition Yposition Zposition Zrotation Xrotation Yrotation
      JOINT LeftFoot
      {
        OFFSET -45.3154 0 0
        CHANNELS 6 Xposition Yposition Zposition Zrotation Xrotation Yrotation
        JOINT LeftToeBase
        {
          OFFSET -14.6877 0 0
          CHANNELS 6 Xposition Yposition Zposition Zrotation Xrotation Yrotation
          End Site
          {
            OFFSET 0 0 0
          }
        }
      }
    }
  }
}
MOTION
Frames:	4
Frame Time:	0.0333333
-105.601 103.411 10.8171 89.2803 3.95212 89.5478 0 0 4.66705 -90.0657 -0.110355 -89.7916 9.33409 -1.77636e-015 1.42109e-014 0.227308 -0.131368 -6.49642 11.0269 -3.55271e-015 -2.84217e-014 0.245443 -0.103394 -2.54638 27.2125 -6.21725e-015 -10.2659 5.51401 2.32176 29.8273 10.9224 -3.55271e-015 -2.84217e-014 -5.44268 0.192783 -19.991 23.8429 -1.55531 -7.12573 -91.959 -9.90876 -1.3854 14.1892 2.84217e-014 -1.42109e-014 5.43087 14.2663 -4.49325 29.5651 2.84217e-014 2.84217e-014 -3.06318 4.48466 -0.000768778 25.3936 -2.84217e-014 2.84217e-014 17.2433 3.05724 7.95751 2.18163 2.84217e-014 0 8.00174e-007 1.58589e-006 -1.42833e-007 6.77462 0.0865053 -1.22157 -21.6739 1.19639 -9.42508 23.8431 1.55531 -7.12577 93.9008 9.87075 177.958 -14.1892 0.000694916 0 1.20086 22.6013 21.1523 -29.5651 0 -4.27958e-007 -3.67275 -5.34473 -0.00231439 -25.3936 2.7868e-008 -5.56579e-007 16.0583 3.04246 9.39478 -2.18182 -0.000553688 -9.22559e-006 8.86284e-007 -1.24892e-008 -1.81133e-007 -6.77445 -0.0859989 1.22158 -21.6739 1.19639 -9.42509 -8.89671 -5.28428 -4.10676 85.2147 3.02053 90.2424 43.6759 -7.10543e-015 -1.42109e-014 1.7943 11.0313 -0.577003 45.3154 -7.10543e-015 -1.42109e-014 85.9502 -22.5359 91.4229 14.6877 0 0 7.13108 1.55867e-007 1.69398e-006 8.89671 -5.28429 -4.10672 93.8079 -6.96774 -88.7108 -43.676 7.10543e-015 -3.48883e-006 1.66945 11.1404 -2.96644 -45.3154 -2.13163e-014 3.71138e-006 84.1637 -25.3315 91.1596 -14.6877 -1.30235e-006 -3.88953e-006 7.13108 -1.1652e-007 5.48907e-006 
-105.636 103.411 10.7556 89.294 4.02183 89.5447 0 0 4.66705 -90.0753 -0.110445 -89.7819 9.33409 -3.55271e-015 0 0.225145 -0.150727 -6.4769 11.0269 -3.55271e-015 0 0.244612 -0.122903 -2.52685 27.2125 -7.10543e-015 -10.2659 5.57568 2.30714 29.7633 10.9224 0 -2.84217e-014 -5.59442 0.175991 -20.0534 23.8429 -1.55531 -7.12573 -91.9838 -9.90862 -1.38924 14.1892 0 0 5.49238 14.2754 -4.56481 29.5651 5.68434e-014 0 -3.05456 4.62344 -0.000749235 25.3936 -8.52651e-014 2.84217e-014 17.0083 3.04638 8.15943 2.18163 2.84217e-014 1.42109e-014 8.00174e-007 1.58589e-006 -1.42833e-007 6.77462 0.0865053 -1.22157 -21.6739 1.19639 -9.42508 23.8431 1.55531 -7.12577 93.8838 9.87094 177.952 -14.1892 0.000694916 1.42109e-014 1.17094 22.6079 21.1695 -29.5651 0 -4.27958e-007 -3.66771 -5.38201 -0.00230074 -25.3936 2.7868e-008 -5.56579e-007 16.0117 3.06298 9.33924 -2.18182 -0.000553688 -9.22559e-006 8.86284e-007 -1.24892e-008 -1.81133e-007 -6.77445 -0.0859989 1.22158 -21.6739 1.19639 -9.42509 -8.89671 -5.28428 -4.10676 85.1995 3.0482 90.2532 43.6759 -7.10543e-015 -1.42109e-014 1.8168 11.0877 -0.604775 45.3154 -7.10543e-015 -1.42109e-014 85.9239 -22.5457 91.4205 14.6877 -7.10543e-015 0 7.13108 1.55867e-007 1.69398e-006 8.89671 -5.28429 -4.10672 93.7889 -6.93939 -88.7249 -43.676 7.10543e-015 -3.48883e-006 1.64255 11.089 -2.90961 -45.3154 0 3.71138e-006 84.2038 -25.3543 91.1621 -14.6877 -1.30235e-006 -3.88953e-006 7.13108 -1.1652e-007 5.48907e-006 
-105.693 103.415 10.6459 89.3061 4.15982 89.5394 0 0 4.66705 -90.0886 -0.110547 -89.7629 9.33409 -3.55271e-015 0 0.222201 -0.177544 -6.43873 11.0269 -1.77636e-015 0 0.243515 -0.149852 -2.48867 27.2125 -4.44089e-015 -10.2659 5.66701 2.24377 29.5939 10.9224 0 2.84217e-014 -5.82984 0.116534 -20.0946 23.8429 -1.55531 -7.12573 -92.0226 -9.90839 -1.39802 14.1892 2.84217e-014 0 5.6135 14.1975 -4.74963 29.5651 2.84217e-014 0 -3.06944 4.73138 -0.000783379 25.3936 -2.84217e-014 1.42109e-014 16.6434 3.01996 8.50842 2.18163 0 0 8.00174e-007 1.58589e-006 -1.42833e-007 6.77462 0.0865053 -1.22157 -21.6739 1.19639 -9.42508 23.8431 1.55531 -7.12577 93.8567 9.87116 177.953 -14.1892 0.000694916 0 1.12828 22.627 21.223 -29.5651 0 -4.27958e-007 -3.65715 -5.41733 -0.00227204 -25.3936 2.7868e-008 -5.56579e-007 15.9747 3.08282 9.27916 -2.18182 -0.000553688 -9.22559e-006 8.86284e-007 -1.24892e-008 -1.81133e-007 -6.77445 -0.0859989 1.22158 -21.6739 1.19639 -9.42509 -8.89671 -5.28428 -4.10676 85.1659 3.10561 90.2835 43.6759 -7.10543e-015 1.42109e-014 1.85349 11.1924 -0.65834 45.3154 -1.42109e-014 -2.84217e-014 85.865 -22.5633 91.4157 14.6877 0 0 7.13108 1.55867e-007 1.69398e-006 8.89671 -5.28429 -4.10672 93.7457 -6.88086 -88.7359 -43.676 7.10543e-015 -3.48883e-006 1.59714 10.9955 -2.81389 -45.3154 0 3.71138e-006 84.2826 -25.3885 91.1676 -14.6877 -1.30235e-006 -3.88953e-006 7.13108 -1.1652e-007 5.48907e-006 
-105.748 103.418 10.5384 89.3109 4.31712 89.5295 -1.77636e-015 0 4.66705 -90.0979 -0.110575 -89.7424 9.33409 -1.77636e-015 0 0.220178 -0.195829 -6.39767 11.0269 -2.66454e-015 1.42109e-014 0.242725 -0.168094 -2.44761 27.2125 -6.21725e-015 -10.2659 5.76805 2.16317 29.3905 10.9224 -3.55271e-015 -2.84217e-014 -6.04562 0.0359926 -20.117 23.8429 -1.55531 -7.12573 -92.0393 -9.90829 -1.40907 14.1892 5.68434e-014 0 5.74785 14.0312 -5.02838 29.5651 2.84217e-014 -1.42109e-014 -3.10555 4.68385 -0.000866397 25.3936 -5.68434e-014 3.55271e-014 16.2958 3.00162 8.80338 2.18163 2.84217e-014 0 8.00174e-007 1.58589e-006 -1.42833e-007 6.77462 0.0865053 -1.22157 -21.6739 1.19639 -9.42508 23.8431 1.55531 -7.12577 93.8435 9.87181 177.962 -14.1892 0.000694916 1.42109e-014 1.10402 22.646 21.3038 -29.5651 0 -4.27958e-007 -3.65256 -5.45575 -0.00225966 -25.3936 2.7868e-008 -5.56579e-007 15.9918 3.08222 9.26827 -2.18182 -0.000553688 -9.22559e-006 8.86284e-007 -1.24892e-008 -1.81133e-007 -6.77445 -0.0859989 1.22158 -21.6739 1.19639 -9.42509 -8.89671 -5.28428 -4.10676 85.1263 3.1741 90.3217 43.6759 -7.10543e-015 -1.42109e-014 1.89355 11.3069 -0.718624 45.3154 -7.10543e-015 -2.84217e-014 85.7934 -22.5802 91.4103 14.6877 0 0 7.13108 1.55867e-007 1.69398e-006 8.89671 -5.28429 -4.10672 93.6886 -6.80949 -88.7306 -43.676 7.10543e-015 -3.48883e-006 1.55504 10.8964 -2.73559 -45.3154 -7.10543e-015 3.71138e-006 84.3736 -25.4112 91.175 -14.6877 -1.30235e-006 -3.88953e-006 7.13108 -1.1652e-007 5.48907e-006 
